<svg width="405" height="437" viewBox="0 0 405 437" fill="none" xmlns="http://www.w3.org/2000/svg">
<g filter="url(#filter0_i_1_127)">
<path d="M254.587 204.215C264.519 203.087 271.805 196.155 270.862 188.727C270.39 185.023 267.958 181.896 264.407 179.835C274.014 170.947 278.718 166.7 278.718 166.7H247.678C236.279 166.7 227.036 175.442 227.036 186.224V214.842C232.115 210.043 236.802 205.622 241.116 201.569C244.715 203.732 249.505 204.791 254.587 204.215Z" fill="#1B1B1B"/>
<path d="M133.81 188.727C132.866 196.151 140.153 203.083 150.086 204.215C155.172 204.791 159.962 203.736 163.556 201.57C167.87 205.623 172.558 210.045 177.635 214.844V186.225C177.635 175.443 168.393 166.701 156.994 166.701H125.953C125.953 166.701 130.663 170.944 140.264 179.836C136.713 181.896 134.282 185.023 133.81 188.727Z" fill="#1B1B1B"/>
<path d="M15.7788 115.015C3.61614 140.763 -1.55601 171.008 0.404539 204.913L1.10743 217.11L18.4634 213.172C18.4502 223.248 19.171 237.953 22.3191 254.699C25.7284 272.832 31.2999 289.658 38.873 304.7C48.4622 323.741 61.2941 339.963 77.0115 352.908L87.3215 361.398L93.2402 350.644C98.3178 357.573 105.201 366.298 113.731 375.641C131.91 395.55 161.369 422.109 198.474 435.596L202.333 437L206.198 435.596C243.299 422.112 272.757 395.55 290.937 375.641C299.466 366.298 306.35 357.573 311.427 350.644L317.345 361.398L327.655 352.908C343.374 339.963 356.205 323.745 365.794 304.7C373.368 289.654 378.939 272.832 382.349 254.699C385.496 237.953 386.217 223.244 386.204 213.172L403.56 217.11L404.267 204.913C406.227 171.008 401.055 140.763 388.892 115.012C379.042 94.1566 364.653 76.2675 346.13 61.8383C332.986 51.5997 319.678 44.6021 308.533 39.9044L339.11 27.1183L321.908 16.9322C302.932 5.69973 279.43 0 252.052 0C228.91 0 209.659 4.13798 202.338 5.95492C195.013 4.13798 175.762 0 152.624 0C125.25 0 101.744 5.69973 82.7669 16.9322L65.565 27.1183L96.143 39.9044C85.0012 44.6021 71.6893 51.5997 58.5493 61.8383C40.0183 76.2712 25.6299 94.1604 15.7788 115.015ZM21.5388 191.526C21.5091 176.781 23.0531 162.944 26.1278 150.104C39.2162 149.679 50.2727 152.681 59.073 159.082C65.7633 163.945 69.1984 169.45 70.2577 171.369C67.0236 185.961 66.8828 196.812 66.8782 197.842L66.8563 201.809L79.2333 214.672C77.0287 215.301 74.7343 216.064 72.3756 216.993C63.1124 220.635 51.726 227.341 41.7163 239.62C38.8816 217.5 40.4639 201.318 40.4811 201.14L41.9735 186.889L21.5388 191.526ZM122.57 121.425C141.332 106.975 167.467 102.769 200.241 108.923L202.337 109.316L204.435 108.923C237.208 102.769 263.339 106.976 282.106 121.425C310.089 142.974 315.158 181.908 316.067 194.151L279.223 232.444C271.448 220.722 263.536 213.099 262.871 212.466L247.604 226.835C247.673 226.9 254.53 233.52 261.087 243.426C267.006 252.358 273.907 265.867 273.186 279.476C272.663 289.37 268.275 298.076 259.814 305.954L254.68 304.165L205.923 287.172C206.815 280.491 208.822 272.309 213.342 269.291C221.478 263.859 235.356 255.259 213.342 253.901C213.342 253.901 208.08 256.619 202.333 256.619C196.591 256.619 191.329 253.901 191.329 253.901C169.315 255.26 183.193 263.86 191.329 269.291C195.849 272.309 197.856 280.491 198.748 287.172L149.995 304.161L144.861 305.95C136.421 298.092 132.034 289.407 131.494 279.545C130.04 253.036 156.814 227.082 157.084 226.822L149.438 219.65L157.072 226.834L141.809 212.466C141.144 213.099 133.231 220.721 125.457 232.444L88.6135 194.15C89.5174 181.888 94.595 142.969 122.57 121.425ZM236.111 332.369C235.849 332.519 235.421 332.69 234.391 332.69C231.926 332.69 228.207 331.692 224.27 330.637C218.262 329.027 210.783 327.023 202.338 327.023C193.894 327.023 186.414 329.027 180.406 330.637C176.469 331.692 172.751 332.69 170.286 332.69C169.261 332.69 168.827 332.52 168.57 332.369C167.442 330.852 167.215 325.36 168.175 319.53L202.338 307.624L236.497 319.53C237.403 325.071 237.321 330.75 236.111 332.369ZM346.209 296.238C340.067 308.367 332.443 319.133 323.463 328.385L312.784 309.004L303.023 325.356C302.92 325.526 292.55 342.783 274.332 362.664C258.473 379.969 233.346 402.775 202.339 415.107C171.332 402.775 146.201 379.969 130.346 362.664C112.128 342.783 101.758 325.526 101.659 325.36L91.9064 308.963L81.219 328.382C72.2341 319.133 64.6134 308.362 58.4719 296.234C54.3677 288.133 50.92 279.407 48.1448 270.158C61.7054 237.71 86.3263 232.858 96.1688 232.266L115.116 251.96C111.65 260.735 109.45 270.434 109.982 280.486C110.9 297.812 119.545 312.951 135.675 325.485L140.444 329.189L146.023 327.246C146.203 335.339 148.506 344.065 156.273 349.09C160.338 351.724 165.051 353.054 170.288 353.054C175.747 353.054 181.104 351.618 186.281 350.231C191.496 348.831 196.891 347.387 202.341 347.387C207.793 347.387 213.183 348.831 218.403 350.231C223.583 351.618 228.94 353.054 234.395 353.054C239.627 353.054 244.345 351.719 248.41 349.09C256.177 344.065 258.476 335.339 258.66 327.246L264.239 329.189L269.008 325.485C285.138 312.951 293.784 297.812 294.701 280.486C295.233 270.434 293.033 260.735 289.567 251.96L308.488 232.295C312.095 232.53 317.757 233.321 324.039 235.796C338.484 241.479 349.407 253.036 356.543 270.155C353.762 279.407 350.313 288.133 346.209 296.238ZM362.745 186.91L364.199 201.127C364.22 201.318 365.803 217.5 362.968 239.62C352.959 227.337 341.568 220.635 332.309 216.993C329.951 216.064 327.656 215.301 325.452 214.672L337.829 201.809L337.807 197.842C337.803 196.812 337.662 185.952 334.424 171.345C336.396 167.657 347.855 149.208 378.575 150.125C381.646 162.96 383.176 176.793 383.151 191.531L362.745 186.91ZM369.234 123.323C370.238 125.445 371.181 127.611 372.078 129.805C352.938 130.678 339.69 137.42 331.34 143.776C329.728 145.001 328.252 146.25 326.897 147.492C320.713 132.754 311.016 117.465 295.813 105.717C295.358 105.365 294.891 105.024 294.428 104.683C296.74 96.3025 304.09 81.5726 327.463 73.8695C329.119 75.0422 330.778 76.275 332.434 77.5653C348.374 89.9742 360.756 105.369 369.234 123.323ZM114.683 25.3902C125.945 22.0559 138.631 20.3722 152.625 20.3722C178.271 20.3722 199.006 26.2095 199.199 26.2664L202.339 27.1633L205.466 26.2708C205.671 26.2101 226.407 20.3728 252.053 20.3728C266.046 20.3728 278.732 22.0565 289.994 25.3908L242.789 45.1338L276.936 51.1738C277.119 51.2063 289.347 53.4535 305.451 61.0478C291.77 68.5238 283.861 78.0444 279.35 85.8982C277.754 88.677 276.498 91.3746 275.507 93.9139C255.149 85.3584 230.647 83.5496 202.334 88.5676C174.021 83.5496 149.52 85.3547 129.162 93.9139C128.17 91.3784 126.914 88.677 125.318 85.8982C120.812 78.0531 112.912 68.54 99.2521 61.0678C115.3 53.523 127.565 51.2063 127.733 51.1738L161.879 45.1338L114.683 25.3902ZM71.5141 78.1294C73.4138 76.6284 75.3181 75.213 77.2178 73.8664C90.4782 78.2026 100.119 85.2289 105.926 94.8184C108.13 98.4535 109.43 101.925 110.197 104.712C109.751 105.045 109.301 105.373 108.859 105.714C93.6561 117.462 83.9637 132.751 77.7753 147.489C76.4197 146.248 74.9445 145.002 73.3325 143.773C64.9864 137.42 51.7432 130.679 32.6079 129.806C33.4271 127.794 34.2801 125.806 35.1893 123.855C43.5479 105.949 55.7701 90.5665 71.5141 78.1294Z" fill="#1B1B1B"/>
</g>
<defs>
<filter id="filter0_i_1_127" x="0" y="0" width="404.671" height="441" filterUnits="userSpaceOnUse" color-interpolation-filters="sRGB">
<feFlood flood-opacity="0" result="BackgroundImageFix"/>
<feBlend mode="normal" in="SourceGraphic" in2="BackgroundImageFix" result="shape"/>
<feColorMatrix in="SourceAlpha" type="matrix" values="0 0 0 0 0 0 0 0 0 0 0 0 0 0 0 0 0 0 127 0" result="hardAlpha"/>
<feOffset dy="4"/>
<feGaussianBlur stdDeviation="2"/>
<feComposite in2="hardAlpha" operator="arithmetic" k2="-1" k3="1"/>
<feColorMatrix type="matrix" values="0 0 0 0 0.171501 0 0 0 0 0.171501 0 0 0 0 0.171501 0 0 0 1 0"/>
<feBlend mode="normal" in2="shape" result="effect1_innerShadow_1_127"/>
</filter>
</defs>
</svg>
